<?xml version="1.0" encoding="UTF-8" standalone="no"?>
<!-- Uploaded to: SVG Repo, www.svgrepo.com, Generator: SVG Repo Mixer Tools -->

<svg
   fill="#000000"
   version="1.1"
   id="Capa_1"
   width="800px"
   height="800px"
   viewBox="0 0 56.349 56.349"
   xml:space="preserve"
   sodipodi:docname="ljm_icon.svg"
   inkscape:export-filename="text-lines-in-a-monitor-screen-svgrepo-com.png"
   inkscape:export-xdpi="1.92"
   inkscape:export-ydpi="1.92"
   inkscape:version="1.2.2 (b0a8486541, 2022-12-01)"
   xmlns:inkscape="http://www.inkscape.org/namespaces/inkscape"
   xmlns:sodipodi="http://sodipodi.sourceforge.net/DTD/sodipodi-0.dtd"
   xmlns="http://www.w3.org/2000/svg"
   xmlns:svg="http://www.w3.org/2000/svg"><defs
   id="defs9" /><sodipodi:namedview
   id="namedview7"
   pagecolor="#ffffff"
   bordercolor="#666666"
   borderopacity="1.0"
   inkscape:showpageshadow="2"
   inkscape:pageopacity="0.0"
   inkscape:pagecheckerboard="0"
   inkscape:deskcolor="#d1d1d1"
   showgrid="false"
   inkscape:zoom="0.295"
   inkscape:cx="-176.27119"
   inkscape:cy="401.69492"
   inkscape:window-width="2560"
   inkscape:window-height="1531"
   inkscape:window-x="0"
   inkscape:window-y="32"
   inkscape:window-maximized="1"
   inkscape:current-layer="Capa_1" />
<g
   id="g4">
	<path
   d="M56.349,42.773V7.736H0v35.037h23.494v3.504h-4.662v2.336h18.688v-2.336h-4.681v-3.504H56.349z M2.336,40.438V10.072h51.68   v30.366H2.336z M8.273,25.255l0.687-2.133h3.976l0.709,2.133h1.161h1.164l-3.709-10.483h-1.268H9.724L6.015,25.255h1.137H8.273z    M10.959,17.108l1.393,4.211H9.57L10.959,17.108z M17.565,14.842h33.236v2.336H17.565V14.842z M17.565,21.102h33.236v2.336H17.565   V21.102z M5.521,27.364h45.28v2.335H5.521V27.364z M5.521,33.624h45.28v2.336H5.521V33.624z"
   id="path2" />
</g>
<g
   id="g198"
   transform="matrix(0.06830723,0,0,0.05451108,17.569382,1.1160492)">
	<path
   class="st0"
   d="m 208.125,399.449 c 0,0 9.656,-15.703 21.266,-34.563 L 75.469,270.152 c -11.609,18.859 -21.281,34.563 -21.281,34.563 0,0 27.797,60.406 -9.906,121.656 l 29.844,18.375 29.844,18.375 c 37.686,-61.266 104.155,-63.672 104.155,-63.672 z"
   id="path190"
   style="fill:#000000" />
	<path
   class="st0"
   d="m 389.531,104.684 c 6.031,-9.828 2.984,-22.719 -6.859,-28.781 L 264.359,3.105 C 254.531,-2.942 241.656,0.121 235.593,9.949 L 83.188,257.59 237.126,352.309 Z"
   id="path192"
   style="fill:#000000" />
	<polygon
   class="st0"
   points="48.219,442.871 22.531,488.637 74.188,488.637 87.484,467.043 "
   id="polygon194"
   style="fill:#000000" />
	<path
   class="st0"
   d="M 482.406,484.449 H 117.844 c -3.906,0 -7.063,3.156 -7.063,7.063 v 13.438 c 0,3.891 3.156,7.047 7.063,7.047 h 364.563 c 3.906,0 7.063,-3.156 7.063,-7.047 v -13.438 c -0.001,-3.907 -3.157,-7.063 -7.064,-7.063 z"
   id="path196"
   style="fill:#000000" />
</g></svg>
